<svg width="15" height="17" viewBox="0 0 15 17" fill="none" xmlns="http://www.w3.org/2000/svg">
<path opacity="0.997" fill-rule="evenodd" clip-rule="evenodd" d="M3.99432 0.0107682C5.0337 -0.0740853 5.88285 0.342544 6.54171 1.26066C6.93527 1.92314 7.25457 2.63294 7.49953 3.3901C7.72435 2.70974 8.00286 2.06165 8.33508 1.44583C8.75953 0.793939 9.30977 0.338748 9.98579 0.0802065C10.9478 -0.147088 11.7562 0.153811 12.4109 0.982904C12.8647 1.79454 12.919 2.64322 12.5739 3.52897C12.2682 4.36996 11.7452 4.96403 11.0047 5.31122C12.1867 5.32664 13.3687 5.3421 14.5507 5.35751C14.7133 5.35256 14.856 5.40654 14.9787 5.51954C14.9855 6.1136 14.9922 6.70772 14.9991 7.30178C15.0048 7.9452 14.9844 8.58556 14.9379 9.22291C14.9011 9.27851 14.8536 9.31711 14.7953 9.33864C12.4992 9.36952 10.2031 9.36952 7.90711 9.33864C7.8816 9.30392 7.86122 9.26531 7.84598 9.22291C7.82344 8.04949 7.82344 6.87677 7.84598 5.7047C7.81394 5.47616 7.70524 5.32187 7.51991 5.24178C7.43913 5.26447 7.37118 5.31076 7.31612 5.38066C7.29325 5.50981 7.23892 5.61781 7.15309 5.7047C7.18292 6.89413 7.17611 8.08232 7.13271 9.2692C7.05433 9.3066 6.97281 9.32975 6.88816 9.33864C5.77411 9.34637 4.66003 9.35405 3.54598 9.36178C2.40128 9.36915 1.26005 9.346 0.122285 9.29235C0.0655087 9.23814 0.0315163 9.1687 0.0203893 9.08403C-0.00679644 7.89585 -0.00679644 6.70772 0.0203893 5.51954C0.143112 5.40654 0.285766 5.35256 0.448351 5.35751C1.63034 5.3421 2.81233 5.32664 3.99432 5.31122C3.07669 4.83955 2.49931 4.0449 2.26209 2.92717C2.06849 1.84755 2.37418 1.00661 3.17916 0.404252C3.44082 0.232137 3.71252 0.100992 3.99432 0.0107682ZM4.19811 1.81616C5.0835 1.92981 5.70164 2.45448 6.05261 3.3901C6.13829 3.8433 5.99563 4.1442 5.62465 4.29279C5.31627 4.32483 5.03097 4.24766 4.76873 4.06133C4.4048 3.7359 4.11272 3.34242 3.89242 2.88088C3.80019 2.57975 3.8138 2.28658 3.93318 2.00133C4.01523 1.92041 4.10355 1.85866 4.19811 1.81616ZM10.3934 1.81616C11.0188 1.73191 11.2702 2.04049 11.1474 2.74201C10.8762 3.47907 10.4074 3.98055 9.74124 4.2465C9.47288 4.29932 9.21476 4.26844 8.96683 4.15392C8.85197 3.99939 8.81802 3.82196 8.86493 3.62156C8.9489 3.38454 9.04398 3.15308 9.15024 2.92717C9.37311 2.62771 9.61085 2.34223 9.86351 2.07077C10.0354 1.95731 10.212 1.87241 10.3934 1.81616Z" fill="#FEFEFE"/>
<path fill-rule="evenodd" clip-rule="evenodd" d="M1.182 9.9173C3.1384 9.9173 5.0948 9.9173 7.05119 9.9173C7.0776 11.0735 7.09118 12.2308 7.09195 13.3892C7.09798 14.5487 7.0776 15.706 7.03081 16.8611C7.01043 16.8843 6.99006 16.9074 6.96968 16.9306C6.86097 16.946 6.75231 16.9614 6.64361 16.9769C5.76731 16.9846 4.891 16.9923 4.0147 17C3.08024 16.9836 2.1496 16.9836 1.22276 17C1.1692 16.9624 1.12164 16.9161 1.08011 16.8611C1.01277 14.6418 0.999201 12.4198 1.03935 10.1951C1.07709 10.0936 1.12466 10.001 1.182 9.9173Z" fill="#FEFEFE"/>
<path fill-rule="evenodd" clip-rule="evenodd" d="M7.94787 9.9173C9.91788 9.90957 11.8879 9.9173 13.8578 9.94044C13.8782 9.96359 13.8986 9.98674 13.919 10.0099C13.9865 12.2435 14.0001 14.4809 13.9597 16.7222C13.9456 16.8309 13.898 16.9158 13.8171 16.9769C12.0019 17.0064 10.1814 17.0064 8.35545 16.9769C8.24675 16.9614 8.13809 16.946 8.02939 16.9306C8.00901 16.9074 7.98863 16.8843 7.96825 16.8611C7.92146 15.706 7.90108 14.5487 7.90711 13.3892C7.90789 12.2308 7.92146 11.0735 7.94787 9.9173Z" fill="#FEFDFE"/>
</svg>
