<svg width="17" height="15" viewBox="0 0 17 15" fill="none" xmlns="http://www.w3.org/2000/svg">
<path fill-rule="evenodd" clip-rule="evenodd" d="M4.08436 4.83912L8.38957 0.088838C8.726 -0.0304058 8.91432 -0.0288169 9.25061 0.088838L13.5558 4.83912H16.262C16.8426 5.10286 16.9903 5.36486 17 5.9946L14.2939 14.5965C14.0976 14.9052 13.9905 14.9637 13.8018 14.9816H3.34632C2.94232 15.0392 2.76965 14.9748 2.60828 14.5965L0.0251549 5.86621C-0.0551885 5.30468 0.0332904 5.04957 0.640186 4.83912H4.08436ZM5.68344 4.83912L8.8816 1.24431L11.9567 4.83912H5.68344ZM9.98865 9.84618C9.80724 8.78465 9.55623 8.41277 8.51258 8.30555C7.54694 8.3612 7.19933 8.66394 7.0365 9.84618C7.10523 10.8952 7.48889 11.2157 8.63558 11.3868C9.46991 11.1586 9.80822 10.8698 9.98865 9.84618Z" fill="white"/>
</svg>
