<svg width="15" height="17" viewBox="0 0 15 17" fill="none" xmlns="http://www.w3.org/2000/svg">
<path opacity="0.999" fill-rule="evenodd" clip-rule="evenodd" d="M2.43071 2.01571C2.48627 2.20174 2.59528 2.25031 2.7578 2.16143C3.16277 2.16143 3.5677 2.16143 3.97267 2.16143C4.10112 2.17241 4.22574 2.15623 4.34648 2.11286C4.38989 2.05511 4.40545 1.99036 4.3932 1.91857C4.40825 1.30754 4.39269 0.7004 4.34648 0.0971429C6.5739 0.0566829 8.80119 0.0647457 11.0283 0.121429C10.9763 0.767866 10.984 1.41547 11.0516 2.06429C11.1256 2.13573 11.2113 2.18431 11.3086 2.21C11.3138 2.23997 11.3294 2.26425 11.3554 2.28286C11.8849 2.31525 12.4145 2.31525 12.944 2.28286C12.9792 2.25027 12.9948 2.20981 12.9908 2.16143C13.0753 2.09255 13.1064 1.99541 13.0842 1.87C13.0989 1.28467 13.0832 0.701809 13.0375 0.121429C13.49 0.0609571 13.9417 0.06902 14.3926 0.145714C14.6115 0.211286 14.775 0.348889 14.8832 0.558571C14.9256 0.848689 14.9567 1.14012 14.9766 1.43286C15.0078 6.11189 15.0078 10.791 14.9766 15.47C14.9611 15.8262 14.9455 16.1824 14.9299 16.5386C14.8557 16.7597 14.7077 16.8973 14.486 16.9514C13.9567 16.9757 13.4271 16.9838 12.8973 16.9757C12.9126 16.3424 12.8892 15.711 12.8272 15.0814C12.7318 14.9792 12.615 14.9226 12.4768 14.9114C12.0874 14.879 11.698 14.879 11.3086 14.9114C11.2156 14.9393 11.1455 14.996 11.0984 15.0814C11.075 15.7127 11.0672 16.3441 11.075 16.9757C8.79904 16.9686 6.52507 16.9766 4.25303 17C4.15518 16.939 4.10846 16.85 4.11285 16.7329C4.13345 16.4852 4.17238 16.2423 4.22966 16.0043C4.26083 15.6643 4.26083 15.3243 4.22966 14.9843C4.16097 14.904 4.07533 14.8555 3.97267 14.8386C3.50667 14.8767 3.03941 14.901 2.57089 14.9114C2.52809 14.9296 2.48912 14.9539 2.45408 14.9843C2.35193 15.6387 2.31296 16.3025 2.33726 16.9757C1.76076 16.9838 1.18449 16.9757 0.608403 16.9514C0.340383 16.8833 0.161283 16.7133 0.071055 16.4414C0.0189089 13.7543 -0.00445405 11.0667 0.000966162 8.37857C-0.00520166 5.80361 0.0181613 3.22932 0.071055 0.655714C0.120631 0.506989 0.20628 0.38556 0.328048 0.291429C0.616861 0.198123 0.912776 0.133377 1.21584 0.0971429C1.24701 0.0647457 1.27813 0.0323971 1.30929 0C1.65829 0.0609086 2.01654 0.0851943 2.38399 0.0728571C2.37193 0.721917 2.38749 1.36952 2.43071 2.01571ZM4.11285 3.66714C4.13495 3.73543 4.18167 3.76783 4.25303 3.76429C4.25569 3.81815 4.27125 3.86672 4.29975 3.91C4.34456 4.49043 4.36017 5.07329 4.34648 5.65857C4.30424 5.69301 4.28868 5.74158 4.29975 5.80429C4.05206 5.83717 3.80287 5.86145 3.55214 5.87714C3.49434 5.88841 3.44761 5.9127 3.41196 5.95C3.14674 5.95806 2.88195 5.94995 2.61762 5.92571C2.5922 5.89089 2.56103 5.8666 2.52417 5.85286C2.45641 5.13696 2.46422 4.42461 2.54753 3.71571C3.06549 3.66777 3.58727 3.65155 4.11285 3.66714ZM13.0375 3.81286C13.1494 4.50655 13.1571 5.20278 13.0609 5.90143C13.0258 5.93183 12.9868 5.95612 12.944 5.97429C12.3366 6.00668 11.7292 6.00668 11.1217 5.97429C11.0925 5.93786 11.0691 5.89735 11.0516 5.85286C11.0336 5.26621 11.0258 4.68335 11.0283 4.10429C11.0597 4.00569 11.0908 3.90854 11.1217 3.81286C11.7659 3.75472 12.4045 3.75472 13.0375 3.81286ZM4.53338 9.20429C4.56595 9.41208 4.48806 9.54161 4.29975 9.59286C3.76063 9.59864 3.23108 9.58241 2.71107 9.54429C2.69668 9.50504 2.67332 9.47264 2.64098 9.44714C2.63318 9.13143 2.62542 8.81571 2.61762 8.5C2.61145 8.14703 2.63481 7.79892 2.68771 7.45571C2.71107 7.43143 2.73443 7.40714 2.7578 7.38286C3.2095 7.35046 3.66115 7.35046 4.11285 7.38286C4.34961 7.38801 4.48198 7.50943 4.51002 7.74714C4.53338 8.23257 4.54114 8.71828 4.53338 9.20429ZM11.1685 7.40714C11.7471 7.39286 12.3234 7.40909 12.8973 7.45571C12.991 7.51269 13.061 7.59366 13.1076 7.69857C13.131 8.07058 13.1387 8.44298 13.131 8.81571C13.1932 8.94525 13.1932 9.07475 13.131 9.20429C13.131 9.23668 13.131 9.26903 13.131 9.30143C13.0974 9.37871 13.0506 9.45156 12.9908 9.52C12.4124 9.55852 11.8361 9.55045 11.2619 9.49571C11.1188 9.3926 11.0487 9.24688 11.0516 9.05857C11.0205 8.6376 11.0205 8.21668 11.0516 7.79571C11.0562 7.65087 11.0951 7.52133 11.1685 7.40714ZM3.08488 13.3814C2.98409 13.3374 2.87508 13.305 2.7578 13.2843C2.69752 13.2572 2.6586 13.2086 2.64098 13.1386C2.60304 12.5535 2.6108 11.9706 2.66434 11.39C2.68887 11.3564 2.72004 11.3321 2.7578 11.3171C3.27384 11.2759 3.78782 11.292 4.29975 11.3657C4.35428 11.39 4.3932 11.4305 4.41657 11.4871C4.50759 12.0545 4.50759 12.6211 4.41657 13.1871C4.34377 13.2973 4.24256 13.3539 4.11285 13.3571C3.77053 13.3814 3.42789 13.3895 3.08488 13.3814ZM12.617 11.39C12.7135 11.3908 12.8069 11.407 12.8973 11.4386C12.9589 11.5835 13.0056 11.7292 13.0375 11.8757C13.0585 12.3507 13.0274 12.8202 12.944 13.2843C12.8601 13.344 12.7666 13.3764 12.6637 13.3814C12.1962 13.3895 11.7289 13.3814 11.2619 13.3571C11.1567 13.3208 11.0944 13.248 11.075 13.1386C11.0615 12.5856 11.077 12.0352 11.1217 11.4871C11.1529 11.4871 11.1685 11.471 11.1685 11.4386C11.6513 11.4512 12.1341 11.435 12.617 11.39Z" fill="#FEFEFE"/>
<path fill-rule="evenodd" clip-rule="evenodd" d="M4.3932 1.91856C4.40545 1.99035 4.38989 2.0551 4.34648 2.11285C4.22574 2.15622 4.10112 2.1724 3.97267 2.16142C4.07472 2.12422 4.18378 2.09182 4.29975 2.06428C4.33134 2.01075 4.36246 1.96218 4.3932 1.91856Z" fill="#EBD6E1"/>
<path fill-rule="evenodd" clip-rule="evenodd" d="M13.0842 1.87C13.1064 1.99541 13.0753 2.09255 12.9908 2.16142C13.0083 2.05466 13.0395 1.95752 13.0842 1.87Z" fill="#F1E2E9"/>
<path fill-rule="evenodd" clip-rule="evenodd" d="M2.43072 2.01572C2.52235 2.10373 2.63136 2.1523 2.7578 2.16143C2.59529 2.25032 2.48627 2.20175 2.43072 2.01572Z" fill="#EFDEE6"/>
<path fill-rule="evenodd" clip-rule="evenodd" d="M12.9908 2.16142C12.9948 2.2098 12.9792 2.25026 12.944 2.28285C12.4145 2.31525 11.8849 2.31525 11.3554 2.28285C11.3294 2.26425 11.3138 2.23996 11.3086 2.20999C11.8082 2.25449 12.3067 2.27066 12.8039 2.25857C12.8774 2.24633 12.9397 2.21398 12.9908 2.16142Z" fill="#F2E3EA"/>
<path fill-rule="evenodd" clip-rule="evenodd" d="M4.11285 3.66713C4.1842 3.66359 4.23092 3.69598 4.25302 3.76428C4.18167 3.76782 4.13495 3.73542 4.11285 3.66713Z" fill="#ECD9E2"/>
<path fill-rule="evenodd" clip-rule="evenodd" d="M13.0375 3.81285C12.4045 3.75471 11.7659 3.75471 11.1217 3.81285C11.1269 3.78288 11.1425 3.7586 11.1685 3.74C11.7759 3.7076 12.3833 3.7076 12.9908 3.74C13.0168 3.7586 13.0323 3.78288 13.0375 3.81285Z" fill="#F1E3EA"/>
<path fill-rule="evenodd" clip-rule="evenodd" d="M4.29975 3.91C4.36185 4.18336 4.39302 4.47479 4.3932 4.78429C4.3932 5.08427 4.3776 5.37569 4.34648 5.65857C4.36017 5.07329 4.34456 4.49043 4.29975 3.91Z" fill="#F3E7ED"/>
<path fill-rule="evenodd" clip-rule="evenodd" d="M2.52417 5.85286C2.56103 5.86661 2.5922 5.89089 2.61762 5.92572C2.88195 5.94995 3.14674 5.95807 3.41196 5.95C3.16683 6.00576 2.88648 6.01387 2.57089 5.97429C2.53575 5.9417 2.52015 5.90124 2.52417 5.85286Z" fill="#E5C8D6"/>
<path fill-rule="evenodd" clip-rule="evenodd" d="M11.1685 7.40715C11.721 7.35081 12.2818 7.34275 12.8506 7.38287C12.8766 7.40147 12.8921 7.42575 12.8973 7.45572C12.3234 7.40909 11.7471 7.39287 11.1685 7.40715Z" fill="#F4E7ED"/>
<path fill-rule="evenodd" clip-rule="evenodd" d="M13.131 8.81572C13.2007 8.85516 13.2319 8.91991 13.2244 9.01001C13.2319 9.10011 13.2007 9.16485 13.131 9.20429C13.1932 9.07475 13.1932 8.94526 13.131 8.81572Z" fill="#EAD4DF"/>
<path fill-rule="evenodd" clip-rule="evenodd" d="M4.53338 9.20428C4.64361 9.45195 4.56576 9.58149 4.29975 9.59286C4.48806 9.54161 4.56595 9.41207 4.53338 9.20428Z" fill="#E8CFDB"/>
<path fill-rule="evenodd" clip-rule="evenodd" d="M13.131 9.30142C13.146 9.40935 13.1148 9.49843 13.0375 9.56856C12.7416 9.57668 12.4456 9.58474 12.1497 9.59285C11.8365 9.59266 11.5405 9.56031 11.2619 9.49571C11.8361 9.55045 12.4124 9.55851 12.9908 9.51999C13.0506 9.45156 13.0974 9.3787 13.131 9.30142Z" fill="#F1E3EA"/>
<path fill-rule="evenodd" clip-rule="evenodd" d="M12.617 11.39C12.1341 11.435 11.6513 11.4513 11.1685 11.4386C11.1821 11.3828 11.221 11.3504 11.2853 11.3414C11.7278 11.3868 12.1717 11.403 12.617 11.39Z" fill="#E7CCD9"/>
<path fill-rule="evenodd" clip-rule="evenodd" d="M12.8973 11.4386C12.9439 11.4344 12.9828 11.4506 13.0141 11.4871C13.0374 11.6157 13.0452 11.7452 13.0375 11.8757C13.0056 11.7292 12.9589 11.5835 12.8973 11.4386Z" fill="#F0E1E8"/>
<path fill-rule="evenodd" clip-rule="evenodd" d="M11.1217 11.4871C11.077 12.0352 11.0615 12.5856 11.075 13.1386C11.0439 12.8719 11.0283 12.5967 11.0283 12.3129C11.0285 12.0194 11.0596 11.7442 11.1217 11.4871Z" fill="#EBD5E0"/>
<path fill-rule="evenodd" clip-rule="evenodd" d="M2.7578 13.2843C2.87508 13.305 2.98409 13.3374 3.08488 13.3814C2.99017 13.3893 2.89671 13.3812 2.80452 13.3571C2.77854 13.3385 2.76298 13.3143 2.7578 13.2843Z" fill="#EDDAE3"/>
<path fill-rule="evenodd" clip-rule="evenodd" d="M12.944 13.2843C12.9481 13.3327 12.9325 13.3731 12.8973 13.4057C12.8092 13.4436 12.7313 13.4355 12.6637 13.3814C12.7666 13.3764 12.8601 13.344 12.944 13.2843Z" fill="#F2E5EB"/>
</svg>
