<svg width="15" height="17" viewBox="0 0 15 17" fill="none" xmlns="http://www.w3.org/2000/svg">
<path fill-rule="evenodd" clip-rule="evenodd" d="M5.48867 5.41392C5.65922 5.50031 5.85002 5.53016 6.06111 5.50344C6.19991 5.52766 6.30999 5.4829 6.39137 5.36916C6.49731 4.16265 6.57067 2.95413 6.61154 1.74359C6.62743 1.21618 6.75953 0.723814 7.00784 0.266499C7.28437 -0.0236811 7.57059 -0.0311113 7.8665 0.244119C7.98125 0.330864 8.06197 0.442765 8.10869 0.579821C8.19521 0.84216 8.25391 1.11072 8.28482 1.3855C8.31419 2.83274 8.31419 4.28001 8.28482 5.72724C8.31811 6.44171 8.20072 7.12806 7.93255 7.78621C7.31973 8.6465 6.50511 9.21344 5.48867 9.4871C5.47912 11.6304 5.49383 13.764 5.53271 15.8878C5.50523 16.2007 5.48321 16.514 5.46666 16.8278C5.44464 16.88 5.40796 16.9173 5.35657 16.9397C4.88369 17.0278 4.41403 17.0129 3.94749 16.8949C3.78879 16.7737 3.67871 16.617 3.61724 16.4249C3.56039 14.4417 3.53106 12.4573 3.52917 10.4718C3.51935 10.1677 3.47531 9.86931 3.39707 9.57662C3.30843 9.49838 3.213 9.43867 3.11085 9.39758C3.10596 9.36996 3.0913 9.34758 3.06681 9.33044C2.97993 9.30828 2.89187 9.30081 2.80261 9.30806C2.31269 9.21567 1.87235 9.01425 1.48159 8.7038C1.14997 8.38166 0.834384 8.04596 0.534866 7.69669C0.196554 7.21673 0.0497893 6.67961 0.0945277 6.08532C0.0150466 4.51952 -0.0143239 2.95292 0.00646003 1.3855C0.0397056 1.04148 0.127773 0.713251 0.270663 0.40078C0.752966 -0.114365 1.14927 -0.0546999 1.45958 0.579821C1.58036 0.958313 1.65372 1.34625 1.67975 1.74359C1.71519 2.88009 1.78855 4.014 1.89992 5.14536C1.91854 5.26321 1.96993 5.36017 2.05403 5.4363C2.26654 5.46195 2.47936 5.48433 2.69252 5.50344C2.9182 5.53052 3.07967 5.441 3.1769 5.23488C3.20627 5.14536 3.23559 5.05584 3.26496 4.96632C3.36862 4.23744 3.40534 3.50638 3.37505 2.77307C3.42807 2.28201 3.46479 1.78964 3.48513 1.29598C3.526 0.94757 3.62877 0.619299 3.79337 0.311259C4.06008 -0.0424804 4.37567 -0.0947156 4.7401 0.154599C4.99704 0.505877 5.15115 0.901244 5.20245 1.34074C5.21522 2.34812 5.23724 3.35522 5.2685 4.36206C5.26287 4.5791 5.2482 4.79547 5.22447 5.01108C5.2143 5.21465 5.30237 5.34893 5.48867 5.41392Z" fill="#FDFCFA"/>
<path fill-rule="evenodd" clip-rule="evenodd" d="M14.2074 0.311264C14.8549 0.238529 15.0898 0.521995 14.9119 1.16171C14.9426 6.07982 14.9719 10.9885 15 15.8878C14.9725 16.2007 14.9505 16.5141 14.9339 16.8278C14.9119 16.88 14.8753 16.9173 14.8239 16.9397C14.3988 17.0201 13.9732 17.0201 13.5469 16.9397C13.3177 16.8409 13.1636 16.6693 13.0845 16.4249C13.0202 14.3224 12.9982 12.2186 13.0185 10.1137C12.3106 10.1083 11.6061 10.0561 10.9049 9.95709C10.7275 9.93797 10.6174 9.84098 10.5746 9.66615C10.5632 7.8261 10.6513 5.99093 10.8388 4.16064C10.9904 2.6499 11.7023 1.50851 12.9744 0.736486C13.3781 0.558072 13.789 0.416317 14.2074 0.311264Z" fill="#FDFCFA"/>
<path fill-rule="evenodd" clip-rule="evenodd" d="M5.48868 5.41393C5.68406 5.44136 5.87486 5.47122 6.06112 5.50345C5.85002 5.53017 5.65922 5.50031 5.48868 5.41393Z" fill="#FBE7D6"/>
<path fill-rule="evenodd" clip-rule="evenodd" d="M2.80262 9.30807C2.89187 9.30082 2.97994 9.30829 3.06682 9.33045C3.0913 9.34759 3.10597 9.36997 3.11085 9.39759C3.00033 9.37848 2.8976 9.34867 2.80262 9.30807Z" fill="#F9DEC6"/>
</svg>
