<svg width="15" height="15" viewBox="0 0 15 15" fill="none" xmlns="http://www.w3.org/2000/svg">
<path fill-rule="evenodd" clip-rule="evenodd" d="M0 3.68793V15H15V3.68793H12.0513C11.3334 1.45833 10.1435 0.228996 7.69231 0.00196909C5.69971 -0.0438579 4.0082 0.696289 2.94872 3.68793H0ZM8.97436 6.22997C9.00953 5.8194 8.84856 5.62591 8.58974 5.59446C8.36725 5.59844 7.96653 5.75285 7.5641 5.84866C7.27507 5.81983 7.02053 5.69494 6.53846 5.59446C6.16206 5.64343 6.06785 5.81129 6.02564 6.22997C6.28465 6.75482 6.6864 6.868 7.69231 6.86548C8.51183 6.84083 8.79969 6.70592 8.97436 6.22997ZM7.69231 1.14589C9.33072 1.26684 10.567 2.45091 10.7692 3.68793H4.23077C4.89971 1.96094 5.81171 1.21876 7.69231 1.14589Z" fill="white"/>
</svg>
