<svg width="35" height="28" viewBox="0 0 35 28" fill="red" xmlns="http://www.w3.org/2000/svg">
    <path d="M0.388889 0.526495C0.0486111 1.00513 0 2.70427 0 14.2393C0 24.1709 0.0729167 27.4974 0.291667 27.7128C0.510417 27.9282 4.69097 28 17.6458 28C32.9826 28 34.7083 27.9521 34.8542 27.6171C34.9271 27.4017 35 21.2991 35 14.0239C35 1.50769 34.9757 0.765811 34.5625 0.406837C34.1493 0.0239311 32.6181 -5.10365e-07 17.4271 -5.10365e-07H0.753472L0.388889 0.526495ZM32.4236 2.05812C32.7396 2.17778 32.8125 2.58461 32.8125 3.92479V5.62393L17.3785 5.55214L1.94444 5.50427V4.09231C1.94444 3.11111 2.06597 2.53675 2.33333 2.29744C2.67361 1.96239 4.375 1.91453 17.3785 1.91453C25.4479 1.91453 32.2049 1.98632 32.4236 2.05812ZM32.8125 18.0923C32.8125 25.1043 32.7639 26.0615 32.4236 26.1812C32.2049 26.253 25.4479 26.3248 17.3785 26.3248C4.375 26.3248 2.67361 26.2769 2.33333 25.9419C1.99306 25.6308 1.94444 24.5538 1.94444 17.9726C1.94444 13.7846 1.99306 10.3145 2.04167 10.2667C2.09028 10.2188 9.04167 10.1709 17.4757 10.1709H32.8125V18.0923Z"
    />
</svg>
