<svg width="35" height="35" viewBox="0 0 35 35" fill="red" xmlns="http://www.w3.org/2000/svg">
    <path d="M14.3651 0.244345C13.4488 0.433114 12.195 0.739865 11.5922 0.95223C9.37393 1.7545 6.16704 3.83097 5.08201 5.17595C4.62388 5.74226 4.62388 5.74226 5.39546 6.42655C7.25208 8.10188 7.01096 8.05469 8.45768 6.85128C11.11 4.63324 14.0999 3.595 17.7408 3.6186C19.7662 3.6186 20.4413 3.73658 21.9604 4.27929C25.1431 5.43551 27.3855 7.11084 29.0975 9.61203C33.0036 15.3931 32.2803 22.7079 27.2891 27.5215C25.3601 29.3856 23.4312 30.4239 20.586 31.1318L18.4641 31.6509L18.3918 33.2554C18.3436 34.4116 18.4159 34.8836 18.6329 34.9543C19.2116 35.1667 22.5873 34.4116 24.4198 33.6566C27.8437 32.2644 31.3158 29.0789 33.1242 25.681C35.5595 21.1034 35.6318 14.3785 33.293 9.68282C31.6775 6.47374 28.6153 3.40623 25.4084 1.82529C22.1533 0.244345 17.7167 -0.392753 14.3651 0.244345Z"
    />
    <path d="M1.85098 9.63563C-0.656663 14.6144 -0.608439 20.8202 1.94743 25.6338C3.87638 29.2441 6.57692 31.7689 10.4107 33.515C12.1709 34.3172 15.7395 35.2139 16.1976 34.9543C16.3181 34.86 16.4146 34.0813 16.4146 33.1846V31.5801L14.775 31.2261C9.10867 29.9755 4.96142 25.8698 3.75582 20.3011C3.1048 17.2808 3.46648 14.4493 4.86497 11.4525C5.29899 10.5559 5.58833 9.7772 5.5401 9.75361C4.40684 8.88055 3.03246 7.9367 2.88779 7.9367C2.79134 7.9367 2.30911 8.71537 1.85098 9.63563Z"
    />
</svg>
