<svg width="22" height="16" viewBox="0 0 22 16" fill="none" xmlns="http://www.w3.org/2000/svg">
<path d="M9.35 13L15 7.35L13.55 5.9L9.325 10.125L7.225 8.025L5.8 9.45L9.35 13ZM5.5 16C3.98333 16 2.6875 15.475 1.6125 14.425C0.5375 13.375 0 12.0917 0 10.575C0 9.275 0.391667 8.11667 1.175 7.1C1.95833 6.08333 2.98333 5.43333 4.25 5.15C4.66667 3.61667 5.5 2.375 6.75 1.425C8 0.475 9.41667 0 11 0C12.95 0 14.6042 0.679167 15.9625 2.0375C17.3208 3.39583 18 5.05 18 7C19.15 7.13333 20.1042 7.62917 20.8625 8.4875C21.6208 9.34583 22 10.35 22 11.5C22 12.75 21.5625 13.8125 20.6875 14.6875C19.8125 15.5625 18.75 16 17.5 16H5.5Z" fill="black"/>
</svg>
