<svg width="18" height="19" viewBox="0 0 18 19" fill="none" xmlns="http://www.w3.org/2000/svg">
    <path d="M0 18.4911V14.2411L13.2 1.06609C13.4 0.882756 13.6208 0.741089 13.8625 0.641089C14.1042 0.541089 14.3583 0.491089 14.625 0.491089C14.8917 0.491089 15.15 0.541089 15.4 0.641089C15.65 0.741089 15.8667 0.891089 16.05 1.09109L17.425 2.49109C17.625 2.67442 17.7708 2.89109 17.8625 3.14109C17.9542 3.39109 18 3.64109 18 3.89109C18 4.15776 17.9542 4.41192 17.8625 4.65359C17.7708 4.89526 17.625 5.11609 17.425 5.31609L4.25 18.4911H0ZM14.6 5.29109L16 3.89109L14.6 2.49109L13.2 3.89109L14.6 5.29109Z"
    />
</svg>
