<svg width="29" height="13" viewBox="0 0 29 13" fill="none" xmlns="http://www.w3.org/2000/svg">
    <path d="M11.6239 10.4995C10.7647 11.6002 9.57381 12.3951 8.22762 12.7662C6.88143 13.1374 5.4515 13.0651 4.14958 12.5602C2.84765 12.0552 1.74295 11.1444 0.999067 9.96262C0.25518 8.78084 -0.0883436 7.3909 0.0193639 5.99865C0.127071 4.60639 0.680284 3.28583 1.59708 2.23252C2.51388 1.17921 3.74552 0.449149 5.10961 0.150447C6.47371 -0.148255 7.89774 0.000283344 9.17082 0.574066C10.4439 1.14785 11.4984 2.11637 12.1781 3.33621L10.0244 4.53619C9.60256 3.77902 8.94804 3.17785 8.15782 2.8217C7.36759 2.46554 6.48368 2.37334 5.63697 2.55875C4.79026 2.74416 4.02576 3.19732 3.45669 3.85112C2.88763 4.50492 2.54424 5.32461 2.47739 6.1888C2.41053 7.053 2.62376 7.91574 3.0855 8.64929C3.54724 9.38284 4.23294 9.94819 5.04106 10.2616C5.84918 10.575 6.73676 10.6199 7.57236 10.3895C8.40795 10.1591 9.14715 9.66578 9.68047 8.98251L11.6239 10.4995Z"
    />
    <path d="M16.7804 9.58801C17.3974 10.7309 18.3428 11.6628 19.4944 12.2634C20.6461 12.864 21.9513 13.1058 23.2417 12.9575C24.5321 12.8093 25.7485 12.2779 26.734 11.4319C27.7195 10.5858 28.429 9.46387 28.7708 8.21079C29.1127 6.95772 29.0713 5.63096 28.652 4.40163C28.2327 3.1723 27.4547 2.09679 26.4183 1.3138C25.382 0.530814 24.1348 0.0762656 22.8377 0.00877955C21.5406 -0.0587065 20.253 0.263965 19.141 0.935179L20.415 3.04584C21.1053 2.62921 21.9045 2.42893 22.7096 2.47082C23.5148 2.5127 24.2889 2.79485 24.9322 3.28086C25.5754 3.76687 26.0583 4.43445 26.3186 5.19751C26.5789 5.96057 26.6046 6.78411 26.3924 7.56191C26.1802 8.33971 25.7398 9.0361 25.1281 9.56127C24.5164 10.0864 23.7613 10.4163 22.9604 10.5083C22.1594 10.6003 21.3493 10.4502 20.6344 10.0774C19.9196 9.70462 19.3328 9.1262 18.9498 8.41677L16.7804 9.58801Z"/>
    <path d="M19.052 1.06213L20.5 3L10.5559 11.5668L9.05216 9.56232L19.052 1.06213Z"/>
    <path d="M20.0318 1.65754C20.0036 1.68236 19.9693 1.698 19.9418 1.72354C19.9208 1.74306 19.9004 1.76515 19.877 1.78174C19.8405 1.80753 19.8052 1.83422 19.7666 1.85674C19.727 1.8798 19.6693 1.92634 19.6205 1.92634C19.6051 1.92634 19.6128 1.89654 19.6151 1.89004C19.6438 1.80725 19.7075 1.73151 19.7558 1.65934C19.7563 1.65861 19.7905 1.60549 19.769 1.62215C19.6706 1.69837 19.5752 1.78347 19.4609 1.83544C19.4544 1.83839 19.3979 1.86756 19.4087 1.83754C19.422 1.80069 19.4464 1.7661 19.4678 1.73374C19.4833 1.71024 19.5398 1.65799 19.5398 1.62845C19.5398 1.62727 19.515 1.64297 19.5134 1.64404C19.5017 1.65197 19.4789 1.6706 19.4636 1.66714C19.4098 1.655 19.4406 1.59707 19.4594 1.56815C19.4706 1.55097 19.4792 1.53454 19.4936 1.52015C19.5055 1.5082 19.4652 1.53855 19.4519 1.54895C19.4253 1.5697 19.4122 1.5772 19.4228 1.54295C19.4282 1.52547 19.4261 1.51162 19.4456 1.50605C19.4497 1.50488 19.4622 1.47819 19.4354 1.49135C19.4224 1.4977 19.3838 1.52177 19.3838 1.49315C19.3838 1.47948 19.3892 1.46657 19.3892 1.45235C19.3892 1.42189 19.4408 1.43009 19.4486 1.41455"
          stroke-linecap="round"/>
</svg>
