<svg width="27" height="22" viewBox="0 0 27 22" fill="none" xmlns="http://www.w3.org/2000/svg">
<path fill-rule="evenodd" clip-rule="evenodd" d="M25 0H2C0.643725 0.0773758 0.181771 0.389032 0 1.5V20C0.218229 20.8531 0.470319 21.2375 1.5 21.5H25C26.1548 21.2904 26.4167 20.9179 26.5 20V1.5C26.4583 0.189069 25.9648 0.0803033 25 0ZM5 4.5H11C11.7332 4.70686 11.8916 4.95824 12 5.5V10.5C11.8213 11.1841 11.4425 11.3649 10.5 11.5H7.5V14.5H12V17H5V10.5C5.59301 9.94177 6.05281 9.72964 7 9.5H9.5V6.5H5V4.5ZM20.5 5H16.5C15.7363 5.14249 15.3897 5.3441 15 6V10.5C15.2908 11.3734 15.6731 11.5036 16.5 11.5H19.5V15H15V17H21C21.5905 16.8077 21.833 16.5322 22 15.5V6C21.6518 5.27933 21.294 5.09967 20.5 5Z" fill="#7F7F7F"/>
<path d="M17 7H19.5V10H17V7Z" fill="#7F7F7F"/>
</svg>
