<svg width="35" height="35" viewBox="0 0 35 35" xmlns="http://www.w3.org/2000/svg">
    <path d="M13.7153 0.538467C13.3747 1.02798 13.326 3.03497 13.326 17.6224C13.3503 31.0839 13.399 34.2168 13.6667 34.5839C13.9587 34.9755 14.3967 35 17.6089 34.9511L21.2348 34.8776L21.5512 33.6539C22.0136 31.7937 21.8676 0.979026 21.3809 0.416089C21.1132 0.0734317 20.5048 5.08583e-06 17.5603 5.08583e-06C14.2507 5.08583e-06 14.056 0.0244806 13.7153 0.538467Z"
    />
    <path d="M0.404161 10.4511C0.136476 10.7692 0.0634716 13.0455 0.0148017 22.4685C-0.0338682 30.007 0.0391367 34.2413 0.209481 34.535C0.428496 34.9755 0.720515 35 4.27342 34.9511L8.09401 34.8776L8.24002 34.1434C8.33736 33.7273 8.41036 28.3427 8.4347 22.1259C8.45903 11.479 8.4347 10.8182 8.021 10.4511C7.36396 9.83917 0.89086 9.83917 0.404161 10.4511Z"
    />
    <path d="M26.9049 18.8706C26.4912 19.0909 26.4669 19.7517 26.4669 26.8986C26.4669 33.8007 26.5156 34.7308 26.8562 34.8531C27.0753 34.9266 28.876 35 30.8472 35C34.1811 35 34.4974 34.951 34.7408 34.535C35.1058 33.8252 35.0815 19.2867 34.6921 18.8951C34.3271 18.528 27.5133 18.5035 26.9049 18.8706Z"
    />
</svg>
