<svg width="23" height="21" viewBox="0 0 23 21" fill="none" xmlns="http://www.w3.org/2000/svg">
<path d="M13.9167 16.125H11.5V7.125H9.08333V4.875H13.9167M19.9583 0.375H3.04167C2.40073 0.375 1.78604 0.612053 1.33283 1.03401C0.879612 1.45597 0.625 2.02826 0.625 2.625V18.375C0.625 18.9717 0.879612 19.544 1.33283 19.966C1.78604 20.3879 2.40073 20.625 3.04167 20.625H19.9583C20.5993 20.625 21.214 20.3879 21.6672 19.966C22.1204 19.544 22.375 18.9717 22.375 18.375V2.625C22.375 2.02826 22.1204 1.45597 21.6672 1.03401C21.214 0.612053 20.5993 0.375 19.9583 0.375Z" fill="#808080"/>
</svg>
