<svg width="35" height="33" viewBox="0 0 35 33" fill="red" xmlns="http://www.w3.org/2000/svg">
    <path d="M0.44184 0.403575C0.150005 0.712192 0.101366 3.58471 0.0284074 16.333C-0.0445514 33.5206 -0.0931905 32.9983 1.43894 32.9983C2.11989 32.9983 2.16853 32.9271 2.16853 32.0962C2.16853 30.9092 2.72788 30.1495 3.62771 30.1495C4.47889 30.1495 4.57617 30.292 4.77073 31.8113L4.91664 32.9983H6.32718H7.73772L7.88363 31.9537C8.10251 30.6718 8.7105 30.0308 9.56169 30.2445C10.1697 30.3869 10.6804 31.4789 10.6804 32.571C10.6804 32.9271 10.9236 32.9983 12.3584 32.9983C14.1824 32.9983 14.1094 33.0695 14.4499 31.384C14.6445 30.5293 15.2281 30.1258 15.5686 30.648C15.6902 30.838 15.8361 31.4315 15.9334 32.0012L16.0793 32.9983H17.5142H18.949V32.0962C18.949 30.3394 20.1893 29.7697 20.5298 31.384C20.8703 33.0458 20.7973 32.9983 22.4997 32.9983C23.5454 32.9983 24.1048 32.9033 24.1534 32.7134C24.2021 32.5472 24.3723 31.9537 24.5182 31.4077C24.7614 30.5056 24.883 30.3869 25.5153 30.3869C26.4395 30.3869 26.9016 30.8617 27.0961 32.0487L27.2663 32.9983H28.6769H30.0874L30.2577 31.6926C30.3793 30.5768 30.5009 30.3632 30.9872 30.2445C32.1546 29.9596 32.4221 30.197 32.6653 31.6451C32.8842 32.9983 32.9085 33.022 33.6381 32.9508C35.0243 32.8084 35 33.0932 35 16.4991C35 -0.118699 35.0243 0.189917 33.6138 0.0474784C32.8842 -0.0237409 32.8599 -1.12394e-06 32.7139 1.28195C32.5194 2.80129 32.2032 3.13365 31.2304 2.89625C30.4765 2.68259 30.209 2.16032 30.1604 0.759672L30.1361 -1.12394e-06H28.7012H27.2663L27.0961 0.94959C26.8772 2.18406 26.3908 2.65885 25.4181 2.56389C24.7371 2.49268 24.6398 2.39772 24.421 1.30569L24.1534 0.118698L22.524 0.0474784C20.9189 -0.0237409 20.9189 -0.0237409 20.773 0.640973C20.4569 2.11284 20.2623 2.49268 19.7759 2.56389C19.1922 2.63511 18.949 2.11284 18.949 0.759672V-1.12394e-06H17.6115C16.736 -1.12394e-06 16.2253 0.118698 16.1523 0.284876C16.1037 0.451055 15.9334 1.04455 15.7875 1.6143C15.5929 2.35024 15.3984 2.61137 15.1309 2.56389C14.7418 2.49268 14.5472 2.04162 14.231 0.640973C14.0851 0.0237386 14.0365 -1.12394e-06 12.3828 -1.12394e-06C10.9236 -1.12394e-06 10.6804 0.0712182 10.6804 0.403575C10.6804 1.51934 10.1697 2.61137 9.56169 2.75381C8.7105 2.96747 8.10251 2.3265 7.88363 1.04455L7.73772 -1.12394e-06H6.32718H4.91664L4.79505 1.21073C4.64913 2.65885 4.16274 3.20487 3.26291 2.99121C2.55764 2.82503 2.16853 2.04162 2.16853 0.807151C2.16853 0.0712182 2.09557 -1.12394e-06 1.46326 -1.12394e-06C1.07415 -1.12394e-06 0.612077 0.166177 0.44184 0.403575ZM27.0475 5.95868C28.2148 6.2673 28.7742 7.07445 28.5796 8.19022C28.2634 9.75705 28.458 9.73331 17.344 9.73331C7.5918 9.73331 7.32428 9.70957 6.69197 9.23477C5.476 8.30892 6.05967 6.24356 7.64044 5.86372C8.5889 5.62633 26.1233 5.72128 27.0475 5.95868ZM27.3879 15.2409C28.1905 15.9769 28.1419 17.3063 27.315 18.066L26.6827 18.6357H17.0035H7.32428L6.69197 18.066C5.88943 17.33 5.84079 16.0481 6.5947 15.2647L7.10541 14.7187H16.9792C26.7556 14.7187 26.8286 14.7187 27.3879 15.2409ZM27.6311 23.8347C28.1175 24.4045 28.2148 24.6894 28.0932 25.3778C27.8257 27.1108 28.0932 27.0633 17.0278 27.0633C6.05967 27.0633 6.2299 27.0871 5.91375 25.5203C5.74351 24.5707 6.25422 23.6211 7.10541 23.265C7.39724 23.1463 11.9936 23.0751 17.3196 23.0988L27.0231 23.1463L27.6311 23.8347Z"
    />
</svg>
