<svg width="23" height="23" viewBox="0 0 23 23" fill="none" xmlns="http://www.w3.org/2000/svg">
<path d="M19.9583 0.625C20.5993 0.625 21.214 0.879612 21.6672 1.33283C22.1204 1.78604 22.375 2.40073 22.375 3.04167V19.9583C22.375 20.5993 22.1204 21.214 21.6672 21.6672C21.214 22.1204 20.5993 22.375 19.9583 22.375H3.04167C2.40073 22.375 1.78604 22.1204 1.33283 21.6672C0.879612 21.214 0.625 20.5993 0.625 19.9583V3.04167C0.625 2.40073 0.879612 1.78604 1.33283 1.33283C1.78604 0.879612 2.40073 0.625 3.04167 0.625H19.9583ZM10.2917 17.5417L15.125 7.875V5.45833H7.875V7.875H12.7083L7.875 17.5417H10.2917Z" fill="#808080"/>
</svg>
