<svg width="30" height="20" viewBox="0 0 30 20" fill="none" xmlns="http://www.w3.org/2000/svg">
<path d="M14.5 11H16.5V13.5H14.5V11Z" fill="white"/>
<path fill-rule="evenodd" clip-rule="evenodd" d="M28.5 0.5H2C0.964767 0.764731 0.656423 1.10409 0.5 2V18C0.550139 19.1434 0.863504 19.4837 2 19.5H28.5C29.643 19.3176 30.0108 18.853 30 17.5V2C29.8139 1.05509 29.5012 0.713741 28.5 0.5ZM4.5 4.5H9C9.02147 4.50627 9.04323 4.51246 9.06519 4.5187C9.42332 4.62055 9.83737 4.73831 10 5.5V9C10 9.5 9.5 10 9.5 10C9.5 10 10 10.5 10 11V13C9.75118 14.7631 9.40285 15.1184 8.5 15H4.5V13.5H8.5V10.5H6V9H8.5V6H4.5V4.5ZM13 6C13.2192 5.33119 13.5584 5.12929 14.5 5H18.5V6.5H15V9.5H17.5C18.052 9.4811 18.2586 9.60701 18.5 10V13.5C18.4211 14.5428 18.1568 14.8073 17.5 15H14.5C13.3865 14.9436 12.999 14.7622 13 14V6ZM22 15C21.2518 15.0389 21.0552 14.2944 21 13.5V6.5C20.9731 5.54902 21.1959 5.20616 22 5H26.5V6.5H22.5V9H25.5C26.1708 9.09816 26.3764 9.32309 26.5 10V13C26.515 14.0794 26.2621 14.8682 25.5 15H22Z" fill="white"/>
<path d="M23 11H25V13H23V11Z" fill="white"/>
</svg>
