<svg width="20" height="20" viewBox="0 0 20 20" fill="none" xmlns="http://www.w3.org/2000/svg">
<g clip-path="url(#clip0_373_44)">
<path d="M1.42171 15.6658H18.5764C19.2193 15.6658 19.7391 15.1455 19.7391 14.5064V14.2158C19.7391 13.5767 19.2193 13.0564 18.5764 13.0564H1.42171C0.781171 13.0564 0.25946 13.5767 0.25946 14.2158V14.5064C0.25946 15.1455 0.781171 15.6658 1.42171 15.6658Z" fill="white"/>
<path d="M1.42171 7.24779H18.5764C19.1186 7.24779 19.5734 6.87786 19.7034 6.37796H19.7391V4.39184H17.7038C17.3594 4.39184 17.0767 4.11335 17.0767 3.76801C17.0767 3.42268 17.3585 3.14419 17.7038 3.14419H19.6927C19.2211 1.37947 15.0614 0 9.9993 0C9.02272 0 8.07677 0.0510571 7.18698 0.146673L7.44784 0.495254C7.65439 0.771891 7.59869 1.16271 7.32252 1.36833C7.20926 1.4542 7.07791 1.49365 6.94655 1.49365C6.75671 1.49365 6.56873 1.40871 6.44526 1.2444L5.76852 0.344868C4.73206 0.523567 3.79911 0.765392 3.00819 1.05688L3.25141 1.24022C3.52851 1.44817 3.58374 1.83898 3.37719 2.11423C3.25373 2.27854 3.06621 2.36348 2.87591 2.36348C2.74409 2.36348 2.61319 2.32449 2.49994 2.23955L1.71412 1.64961C0.791847 2.18292 0.25946 2.80907 0.25946 3.47977V6.37796H0.29845C0.424236 6.87786 0.880501 7.24779 1.42171 7.24779ZM14.5267 2.33006C14.6836 2.02186 15.0591 1.89793 15.3682 2.05157L15.9507 2.3412C16.2594 2.49437 16.3852 2.86895 16.2306 3.17714C16.1197 3.39808 15.8983 3.5234 15.6694 3.5234C15.5757 3.5234 15.4796 3.50298 15.3891 3.45935L14.8093 3.1674C14.4998 3.01283 14.3721 2.63826 14.5267 2.33006ZM13.3329 4.65827L13.9149 4.94975C14.224 5.10385 14.3489 5.47936 14.1948 5.78663C14.0843 6.00571 13.8629 6.13289 13.6336 6.13289C13.5399 6.13289 13.4438 6.11107 13.3538 6.06512L12.7736 5.77642C12.463 5.62185 12.3373 5.24496 12.4932 4.93676C12.6482 4.62995 13.0237 4.50463 13.3329 4.65827ZM10.2369 0.856831L11.9826 0.278957C12.3103 0.168024 12.6649 0.345332 12.7754 0.672097C12.884 1.00072 12.7067 1.35255 12.3786 1.46255L10.6338 2.04136C10.5688 2.0641 10.5024 2.07385 10.4356 2.07385C10.1748 2.07385 9.93061 1.90722 9.84288 1.64822C9.73195 1.32052 9.90972 0.966836 10.2369 0.856831ZM6.86161 2.97941C7.13964 2.77379 7.53139 2.82717 7.73886 3.10381L8.61148 4.26327C8.81756 4.53991 8.76372 4.93165 8.48615 5.13774C8.3729 5.22036 8.24154 5.26306 8.10972 5.26306C7.91988 5.26306 7.7319 5.17673 7.60844 5.01242L6.73629 3.85249C6.52927 3.57585 6.5859 3.18504 6.86161 2.97941ZM1.68303 4.3923L3.13583 3.5234C3.43289 3.3461 3.81675 3.44171 3.99591 3.73692C4.17368 4.03258 4.07714 4.41458 3.78101 4.59468L2.32495 5.4645C2.22516 5.52299 2.11469 5.55176 2.00376 5.55176C1.79117 5.55176 1.58462 5.44408 1.46766 5.25006C1.28803 4.95486 1.38643 4.56961 1.68303 4.3923Z" fill="white"/>
<path d="M1.42171 11.4563H8.11019C8.75258 11.4563 9.27243 10.9374 9.27243 10.296V10.0063C9.27243 9.36533 8.75258 8.84826 8.10972 8.84779H1.42171C0.781171 8.84779 0.25946 9.36486 0.25946 10.0063V10.296C0.25946 10.937 0.780707 11.4563 1.42171 11.4563Z" fill="white"/>
<path d="M18.7213 8.84779H12.0356C11.3923 8.84779 10.8724 9.36486 10.8724 10.0063V10.296C10.8724 10.937 11.3923 11.4563 12.0356 11.4563H18.7213C19.3642 11.4563 19.884 10.9374 19.884 10.296V10.0063C19.884 9.36533 19.3642 8.84826 18.7213 8.84779Z" fill="white"/>
<path d="M0.26004 17.2658V19.0055H0.299029C0.424816 19.5068 0.880616 19.8748 1.42229 19.8748H18.5775C19.1187 19.8748 19.5745 19.5068 19.7026 19.0055H19.7407V17.2658H0.26004Z" fill="white"/>
</g>
<defs>
<clipPath id="clip0_373_44">
<rect width="20" height="20" fill="white"/>
</clipPath>
</defs>
</svg>
