<svg width="15" height="14" viewBox="0 0 15 14" fill="white" xmlns="http://www.w3.org/2000/svg">
    <path fill-rule="evenodd" clip-rule="evenodd"
          d="M6.97317 0.443838C9.6431 0.357774 11.8135 1.24681 13.4843 3.11094C14.953 4.95902 15.3543 6.98564 14.6884 9.19079C13.8568 11.4825 12.1723 12.9977 9.63467 13.7363C6.69476 14.4131 4.15474 13.787 2.01454 11.8579C0.207764 9.99098 -0.383691 7.84009 0.240209 5.40523C1.1788 2.82281 3.10627 1.21202 6.02264 0.572891C6.343 0.522618 6.65984 0.4796 6.97317 0.443838ZM5.04042 2.59473C6.04117 3.57387 7.2135 4.34343 8.5574 4.90335C9.16568 5.18885 9.80992 5.37047 10.4902 5.44824C11.2806 5.57701 12.0727 5.59611 12.8665 5.5056C13.2173 5.44893 13.5605 5.36769 13.8962 5.26183C13.9207 5.26599 13.9418 5.27554 13.9596 5.29051C14.6804 7.5063 14.2368 9.50425 12.6289 11.2843C10.9029 12.9523 8.78537 13.6166 6.27611 13.2775C3.61502 12.7425 1.85653 11.3038 1.00064 8.96137C0.693741 7.96697 0.651506 6.96322 0.8739 5.95012C1.24718 5.88817 1.61155 5.7878 1.96702 5.64899C2.82611 5.16639 3.61293 4.59758 4.32751 3.94262C4.6667 3.53885 4.90433 3.08958 5.04042 2.59473Z"/>
    <path fill-rule="evenodd" clip-rule="evenodd"
          d="M10.1733 6.29426C10.6076 6.22898 10.8505 6.39148 10.9021 6.78179C10.8876 6.9023 10.8506 7.01701 10.7912 7.12593C10.7014 7.20718 10.6116 7.28846 10.5218 7.3697C10.2463 7.52786 9.99809 7.50397 9.77725 7.29801C9.69136 7.13113 9.61215 6.96384 9.53962 6.79613C9.54735 6.69613 9.58959 6.61009 9.66636 6.53802C9.82456 6.43303 9.99356 6.35179 10.1733 6.29426Z"/>
    <path fill-rule="evenodd" clip-rule="evenodd"
          d="M5.42063 7.61347C5.27393 7.63438 5.12606 7.64395 4.97705 7.64215C4.74138 7.62371 4.5988 7.50899 4.54931 7.298C4.46842 6.9918 4.56873 6.74804 4.85031 6.5667C5.23505 6.38462 5.55719 6.44677 5.81669 6.75311C5.93709 7.03909 5.87898 7.29241 5.64242 7.51309C5.57661 7.56199 5.50269 7.59546 5.42063 7.61347Z"/>
    <path fill-rule="evenodd" clip-rule="evenodd"
          d="M5.42063 7.61346C5.34088 7.65571 5.25111 7.67484 5.15131 7.67082C5.08689 7.67065 5.02882 7.6611 4.97704 7.64214C5.12606 7.64395 5.27393 7.63437 5.42063 7.61346Z"/>
</svg>
