<svg width="15" height="17" viewBox="0 0 15 17" fill="white" xmlns="http://www.w3.org/2000/svg">
    <path fill-rule="evenodd" clip-rule="evenodd"
          d="M7.37189 0.00181971C7.48068 -0.00917089 7.57379 0.0296222 7.65125 0.118246C8.90805 1.56952 9.59979 3.33141 9.7265 5.40398C9.73368 5.72764 9.66053 6.02262 9.507 6.28882C8.92976 6.85362 8.36442 7.43575 7.81089 8.0352C7.58185 8.23914 7.35573 8.23136 7.13244 8.01192C6.73567 7.50994 6.29667 7.06752 5.81545 6.68466C5.5867 6.48036 5.42044 6.22422 5.3166 5.91625C5.2444 5.40268 5.25769 4.8904 5.3565 4.37943C5.67817 2.69452 6.34995 1.23528 7.37189 0.00181971Z"
    />
    <path fill-rule="evenodd" clip-rule="evenodd"
          d="M1.70488 6.66138C4.18888 6.50406 6.11778 7.62175 7.49163 10.0144C8.95014 7.48726 10.9855 6.39285 13.5977 6.73123C13.8959 6.77943 14.1886 6.85707 14.4756 6.96408C14.5694 6.9802 14.6425 7.03455 14.6951 7.12708C14.8227 7.44008 14.9158 7.76607 14.9745 8.10506C15.1945 11.559 13.9906 14.0661 11.3628 15.6262C10.1881 16.2901 8.95764 16.748 7.67122 17C5.57119 16.7682 3.68886 15.9067 2.02415 14.4153C0.241831 12.4601 -0.363463 10.0928 0.208308 7.31336C0.243547 7.19219 0.30341 7.09127 0.387897 7.01066C0.822263 6.84109 1.26126 6.72467 1.70488 6.66138Z"
    />
    <path fill-rule="evenodd" clip-rule="evenodd"
          d="M4.05949 7.77906C4.16532 7.74357 4.27172 7.76685 4.37876 7.84891C4.26613 7.86884 4.15974 7.84556 4.05949 7.77906Z"
    />
</svg>
