<svg width="15" height="17" viewBox="0 0 15 17" fill="white" xmlns="http://www.w3.org/2000/svg">
    <path fill-rule="evenodd" clip-rule="evenodd"
          d="M2.29237 0.00290417C5.93029 -0.00483835 9.56816 0.00290417 13.206 0.0260854C13.8086 0.169253 14.2488 0.501486 14.5266 1.02288C14.7751 1.65276 14.9329 2.30183 15 2.9701C14.9713 3.12611 14.9381 3.28063 14.9003 3.43372C14.9583 6.90905 14.9666 10.3862 14.9252 13.8653C14.7 14.3026 14.3428 14.5344 13.8538 14.5607C13.8184 15.1649 13.7603 15.7676 13.6794 16.3688C13.4588 16.8447 13.0684 17.0301 12.5083 16.9252C11.7248 17.0078 11.2845 16.6833 11.1877 15.9516C11.1251 15.4899 11.1002 15.0262 11.113 14.5607C8.8201 14.5479 6.52775 14.5634 4.23589 14.6071C4.24865 15.0726 4.22373 15.5362 4.16114 15.9979C4.06431 16.7297 3.62408 17.0542 2.84054 16.9715C2.28041 17.0765 1.89001 16.8911 1.66945 16.4152C1.58857 15.814 1.53046 15.2113 1.49503 14.6071C1.1134 14.582 0.731324 14.5588 0.348849 14.5375C0.22257 14.5136 0.11463 14.4595 0.0249294 14.3753C-0.00830979 10.3881 -0.00830979 6.40092 0.0249294 2.41375C0.224464 1.87256 0.490228 1.36257 0.822271 0.88379C1.06312 0.690598 1.30401 0.497452 1.54486 0.30426C1.79348 0.189003 2.04265 0.0885819 2.29237 0.00290417ZM12.1096 7.2818C11.8833 7.2659 11.6674 7.2659 11.4618 7.2818C8.78731 7.27406 6.11293 7.2818 3.43855 7.30498C2.96019 7.4495 2.63627 7.30267 2.46679 6.86454C2.43355 5.93729 2.43355 5.01004 2.46679 4.0828C2.65302 3.72938 2.96029 3.55936 3.38871 3.57281C6.26044 3.61124 9.13421 3.63443 12.01 3.64235C12.2216 3.6979 12.3794 3.8138 12.4834 3.99007C12.5166 4.94824 12.5166 5.90637 12.4834 6.86454C12.403 7.03965 12.2784 7.17874 12.1096 7.2818ZM3.13954 10.3881C3.59199 10.4093 3.98233 10.5638 4.31064 10.8517C4.76677 11.649 4.54252 12.2131 3.63788 12.5439C2.78413 12.6963 2.28579 12.3794 2.14287 11.5935C2.16315 10.9577 2.49534 10.5559 3.13954 10.3881ZM11.6611 10.6663C12.2548 10.5951 12.7448 10.7651 13.1312 11.1762C13.4172 11.9192 13.1597 12.4214 12.3588 12.683C11.044 12.8046 10.6038 12.2869 11.0382 11.1299C11.1972 10.9137 11.4049 10.7591 11.6611 10.6663Z"/>
</svg>
